<svg xmlns="http://www.w3.org/2000/svg" xmlns:xlink="http://www.w3.org/1999/xlink" width="24" height="22"><path fill-rule="evenodd" fill="rgb(51, 51, 51)" d="M22.207 11.297 11.981 22 1.756 11.297C-.586 8.933-.586 5.099 1.756 2.735c2.341-2.364 6.138-2.364 8.48.0L11.981 4.875 13.727 2.735C16.068.371 19.865.371 22.207 2.735 24.549 5.099 24.549 8.933 22.207 11.297zM15.718 3.085 11.977 6.39 9.236 3.085C7.8 1.62 4.072 1 2.036 4.085.906 5.797.6 7.925 2.036 9.39l9.941 10.611L21.918 9.39C23.354 7.925 23.354 5.55 21.918 4.085 20.482 2.62 17.154 1.62 15.718 3.085z"/></svg>