<svg id="icons" xmlns="http://www.w3.org/2000/svg" xmlns:xlink="http://www.w3.org/1999/xlink" viewBox="0 0 38.6 36.9" style="enable-background:new 0 0 38.6 36.9"><style>.st0{fill:#79cbc1}</style><g><path class="st0" d="M4.6 8.6v0C1.8 8.6.0 6.7.0 4.3.0 1.9 1.9.0 4.7.0c2.8.0 4.6 1.9 4.6 4.3C9.3 6.7 7.5 8.6 4.6 8.6zM8.8 36.9H.5V12h8.3V36.9zm29.8.0h-8.3V23.6c0-3.3-1.2-5.6-4.2-5.6-2.3.0-3.6 1.5-4.2 3-.2.6-.3 1.3-.3 2v13.9h-8.3c.1-22.5.0-24.9.0-24.9h8.3v3.6h-.1c1.1-1.7 3-4.2 7.5-4.2 5.4.0 9.5 3.6 9.5 11.2V36.9z"/></g></svg>