<svg id="icons" xmlns="http://www.w3.org/2000/svg" xmlns:xlink="http://www.w3.org/1999/xlink" viewBox="0 0 39.6 32.1" style="enable-background:new 0 0 39.6 32.1"><style>.st0{fill:#79cbc1}</style><g><path class="st0" d="M35.5 8c0 .4.0.7.0 1.1.0 10.7-8.2 23.1-23.1 23.1-4.6.0-8.9-1.3-12.5-3.6.7.1 1.3.1 2 .1 3.8.0 7.3-1.3 10.1-3.5-3.6-.1-6.6-2.4-7.6-5.6.5.1 1 .1 1.5.1.7.0 1.5-.1 2.1-.3-3.7-.8-6.5-4-6.5-8 0 0 0-.1.0-.1 1.1.6 2.3 1 3.7 1-2.2-1.5-3.6-3.9-3.6-6.8.0-1.5.4-2.9 1.1-4.1 4 4.9 10 8.1 16.7 8.5-.1-.6-.2-1.2-.2-1.9.0-4.5 3.6-8.1 8.1-8.1 2.3.0 4.4 1 5.9 2.6 1.8-.4 3.6-1 5.1-2-.6 1.9-1.9 3.5-3.6 4.5 1.6-.2 3.2-.6 4.7-1.3C38.5 5.4 37.1 6.9 35.5 8z"/></g></svg>